# xmcd
#
# Track frame offsets:
# 150
# 13955
# 29260
# 38450
# 55721
# 76359
# 90784
# 105129
# 120099
# 136750
# 152068
# 165218
# 178421
# 190436
# 202367
# 215770
# 228668
# 242239
# 255589
# 276928
# 295145
# 311426
#
# Disc length: 4344 seconds
#
#
# Revision: 0
# Processed by: cddbd v1.5.2PL0 Copyright (c) Steve Scherf et al.
# Submitted via: FreeRIP 2.95 
#
DISCID=2610f616
DTITLE=Clint Miller - Clint Miller's Compilation
DYEAR=2005
DGENRE=Country
TTITLE0=Glorytrain To Heaven
TTITLE1=Book Of Life
TTITLE2=Dear Lord
TTITLE3=We Gotta Walk
TTITLE4=It's A Grief
TTITLE5=I'll Fly Away
TTITLE6=Unclouded Day
TTITLE7=Be Strong
TTITLE8=Angels On High
TTITLE9=In The Beginning
TTITLE10=Behold I Am The Lord
TTITLE11=He Touched Me
TTITLE12=Sweet By And By
TTITLE13=Let God Arise
TTITLE14=The Lord Is My Rock
TTITLE15=Our Feet Shall Stand
TTITLE16=Lead Me To The Rock
TTITLE17=American Dream
TTITLE18=A Grateful Nation
TTITLE19=I Love This Country
TTITLE20=How Great Thou Art
TTITLE21=Don't Overlook Salvation
EXTD=
EXTT0=
EXTT1=
EXTT2=
EXTT3=
EXTT4=
EXTT5=
EXTT6=
EXTT7=
EXTT8=
EXTT9=
EXTT10=
EXTT11=
EXTT12=
EXTT13=
EXTT14=
EXTT15=
EXTT16=
EXTT17=
EXTT18=
EXTT19=
EXTT20=
EXTT21=
PLAYORDER=
